<svg width="21" height="20" viewBox="0 0 21 20" fill="none" xmlns="http://www.w3.org/2000/svg">
<path d="M0.426106 5.85399L9.67311 0.30999C9.82852 0.216739 10.0064 0.16748 10.1876 0.16748C10.3689 0.16748 10.5467 0.216739 10.7021 0.30999L19.9401 5.85499C20.0142 5.8994 20.0756 5.96227 20.1182 6.03746C20.1607 6.11264 20.1831 6.19758 20.1831 6.28399V19C20.1831 19.2652 20.0777 19.5196 19.8902 19.7071C19.7027 19.8946 19.4483 20 19.1831 20H1.18311C0.917889 20 0.663535 19.8946 0.475999 19.7071C0.288462 19.5196 0.183105 19.2652 0.183105 19V6.28299C0.183087 6.19658 0.205463 6.11164 0.248051 6.03646C0.290639 5.96127 0.351984 5.8984 0.426106 5.85399ZM2.18311 7.13299V18H18.1831V7.13199L10.1871 2.33199L2.18311 7.13199V7.13299ZM10.2431 12.698L15.5391 8.23499L16.8271 9.76499L10.2571 15.302L3.54711 9.77199L4.81911 8.22799L10.2431 12.698Z" fill="white"/>
</svg>
